<svg width="270" height="37" viewBox="0 0 270 37" fill="none" xmlns="http://www.w3.org/2000/svg">
<path d="M256.534 30.7464C254.833 34.1899 250.447 37 246.789 37H4.24284C0.580711 37 -1.01884 34.1854 0.677526 30.7464L12.7878 6.25365C14.4926 2.81459 18.8787 0 22.5366 0H265.087C268.745 0 270.349 2.81459 268.649 6.25365L256.534 30.7464Z" fill="#009CB6"/>
<path d="M46.2271 19.2827C46.5428 19.2827 46.9216 19.0463 47.0731 18.7653L48.2854 16.4949C48.4328 16.2094 48.3023 15.9774 47.9908 15.9774H30.059C29.7475 15.9774 29.617 15.7455 29.7559 15.46L30.5809 13.8765C30.7325 13.5911 31.1113 13.3591 31.4228 13.3591H49.363C49.6787 13.3591 50.0576 13.1227 50.2091 12.8372L51.4424 10.5445C51.594 10.259 51.4635 10.0271 51.1478 10.0271H21.3667C21.051 10.0271 20.9921 10.2055 21.2404 10.4285L22.5748 11.6106C22.8273 11.8292 22.8989 12.2351 22.7516 12.525L16.2818 24.7067C16.1345 24.9921 16.2565 25.2196 16.5722 25.2196H23.9849C24.2964 25.2196 24.6794 24.9877 24.831 24.7067L27.445 19.8001C27.6007 19.5146 27.9754 19.2827 28.2911 19.2827H46.2271Z" fill="white"/>
<path d="M60.5804 21.9236C60.2647 21.9236 60.1384 21.6961 60.2857 21.4106L66.0946 10.5582C66.2419 10.2727 66.1157 10.0408 65.8 10.0408H55.0788C54.7673 10.0408 54.7126 10.2237 54.9609 10.4467L56.2953 11.6243C56.5394 11.8428 56.6152 12.2487 56.4636 12.5387L50.0023 24.707C49.8508 24.9924 49.9813 25.2244 50.297 25.2244H71.651C71.9624 25.2244 72.3413 24.988 72.4928 24.707L73.6841 22.4366C73.8356 22.1556 73.7051 21.9191 73.3894 21.9191H60.5804V21.9236Z" fill="white"/>
<path d="M128.831 15.8841C128.515 15.8841 128.141 16.116 127.985 16.4015L127.202 17.8779C127.055 18.1634 127.189 18.3953 127.501 18.3953H131.02C131.331 18.3953 131.466 18.6317 131.315 18.9083L130.018 21.4062C129.862 21.6872 129.488 21.9236 129.168 21.9236H119.785C119.474 21.9236 119.339 21.6872 119.486 21.4062L123.502 13.8813C123.654 13.6003 124.032 13.3639 124.352 13.3639H142.284C142.6 13.3639 142.983 13.1319 143.134 12.8509L144.364 10.5582C144.519 10.2772 144.389 10.0408 144.077 10.0408H114.292C113.972 10.0408 113.922 10.2237 114.166 10.4378L115.509 11.6332C115.753 11.8517 115.828 12.2532 115.677 12.5387L109.211 24.7114C109.06 24.9969 109.186 25.2244 109.502 25.2244H131.475C131.795 25.2244 132.304 25.2288 132.615 25.2378C132.615 25.2378 134.813 25.269 136.038 24.533C137.62 23.5784 138.197 22.218 138.197 22.218C138.323 21.9236 138.551 21.4508 138.698 21.1564L141.169 16.4015C141.316 16.116 141.177 15.8841 140.87 15.8841H128.831Z" fill="white"/>
<path d="M251.933 11.8517C251.095 10.0942 248.772 10.0496 248.772 10.0496C248.456 10.0496 247.938 10.0452 247.627 10.0452H224.219C223.903 10.0452 223.848 10.2236 224.101 10.4422L225.439 11.6242C225.679 11.8428 225.755 12.2487 225.608 12.5386L219.138 24.7024C218.987 24.9879 219.113 25.2199 219.433 25.2199H226.841C227.157 25.2199 227.54 24.9879 227.691 24.7024L233.496 13.8545C233.643 13.5734 234.022 13.3326 234.338 13.3326H243.75C244.061 13.3326 244.2 13.569 244.045 13.8545L238.269 24.7024C238.118 24.9879 238.248 25.2199 238.564 25.2199H245.977C246.288 25.2199 246.671 24.9879 246.823 24.7024L251.676 15.5138C251.828 15.2328 252.076 14.7644 252.228 14.4878C252.223 14.4923 252.741 13.5467 251.933 11.8517Z" fill="white"/>
<path d="M219.344 11.8473C218.511 10.0854 216.179 10.0497 216.179 10.0497C215.863 10.0452 215.35 10.0408 215.038 10.0408H191.634C191.319 10.0408 191.26 10.2237 191.512 10.4467L192.847 11.6287C193.091 11.8473 193.171 12.2532 193.019 12.5431L186.549 24.707C186.398 24.9924 186.532 25.2244 186.848 25.2244H194.257H194.825C194.825 25.2244 194.943 24.988 195.094 24.707L197.258 20.6747C197.405 20.3892 197.788 20.1662 198.1 20.1662H207.491C207.802 20.1662 207.933 20.3892 207.785 20.6836L205.651 24.707C205.504 24.9924 205.378 25.2244 205.386 25.2244H205.971H213.359H213.935C213.939 25.2244 214.07 24.988 214.226 24.707L219.075 15.5228C219.226 15.2373 219.475 14.7734 219.631 14.4924C219.635 14.4879 220.144 13.5423 219.344 11.8473ZM199.859 16.8609C199.544 16.8609 199.417 16.6245 199.56 16.3435L200.886 13.8813C201.034 13.5958 201.417 13.3639 201.728 13.3639H211.102C211.418 13.3639 211.544 13.6003 211.397 13.8813L210.092 16.3435C209.945 16.6245 209.558 16.8609 209.25 16.8609H199.859Z" fill="white"/>
<path d="M109.358 11.8473C108.525 10.0854 106.189 10.0497 106.189 10.0497C105.877 10.0452 105.372 10.0408 105.052 10.0408H81.6441C81.3327 10.0408 81.2737 10.2237 81.5263 10.4467L82.8607 11.6287C83.1048 11.8473 83.189 12.2532 83.029 12.5431L76.5593 24.707C76.4119 24.9924 76.5466 25.2244 76.8581 25.2244H84.2708H84.839C84.839 25.2244 84.9653 24.988 85.1126 24.707L87.2678 20.6747C87.4194 20.3892 87.794 20.1662 88.1139 20.1662H97.5007C97.8165 20.1662 97.9511 20.3892 97.7996 20.6836L95.6655 24.707C95.5139 24.9924 95.3961 25.2244 95.4003 25.2244H95.9812H103.364H103.949C103.954 25.2244 104.088 24.988 104.236 24.707L109.097 15.5228C109.245 15.2373 109.493 14.7734 109.649 14.4924C109.649 14.4879 110.162 13.5423 109.358 11.8473ZM89.8734 16.8609C89.5619 16.8609 89.4314 16.6245 89.5788 16.3435L90.9005 13.8813C91.052 13.5958 91.4351 13.3639 91.7466 13.3639H101.117C101.432 13.3639 101.563 13.6003 101.411 13.8813L100.106 16.3435C99.959 16.6245 99.5717 16.8609 99.2645 16.8609H89.8734Z" fill="white"/>
<path d="M186.532 11.8517C185.69 10.0942 183.363 10.0496 183.363 10.0496C183.051 10.0496 182.605 10.0452 182.386 10.0452H181.401H147.247C146.931 10.0452 146.872 10.2236 147.124 10.4422L148.459 11.6242C148.707 11.8428 148.783 12.2487 148.631 12.5386L142.162 24.7069C142.014 24.9924 142.149 25.2243 142.461 25.2243H149.865C150.185 25.2243 150.559 24.9924 150.715 24.7069L156.52 13.8589C156.671 13.5779 157.05 13.337 157.366 13.337H162.872C163.183 13.337 163.314 13.5734 163.162 13.8589L157.404 24.7069C157.252 24.9924 157.383 25.2243 157.69 25.2243H165.107H165.709C165.726 25.2243 165.864 24.9924 166.012 24.7069L171.791 13.8589C171.939 13.5779 172.326 13.337 172.637 13.337H178.274C178.594 13.337 178.724 13.5734 178.572 13.8589L172.789 24.7069C172.637 24.9924 172.532 25.2243 172.553 25.2243H173.159H180.568C180.879 25.2243 181.262 24.9924 181.414 24.7069L186.263 15.5182C186.419 15.2372 186.667 14.7689 186.819 14.4923C186.819 14.4923 187.328 13.5467 186.532 11.8517Z" fill="white"/>
</svg>
